<svg width="18" height="20" viewBox="0 0 18 20" fill="none" xmlns="http://www.w3.org/2000/svg">
<path d="M14.7268 0.981445H3.30606C1.46933 0.981445 0 2.48411 0 4.28751V16.0088C0 17.8455 1.50267 19.3148 3.30606 19.3148H14.6934C16.5301 19.3148 17.9995 17.8122 17.9995 16.0088V4.28751C18.0328 2.48411 16.5301 0.981445 14.7269 0.981445H14.7268ZM3.30606 2.31708H14.6934C15.7954 2.31708 16.6636 3.21878 16.6636 4.28727V8.22763L1.33576 8.22787V4.2875C1.33576 3.21877 2.23745 2.31708 3.30594 2.31708L3.30606 2.31708ZM14.7268 18.0122H3.30606C2.20406 18.0122 1.33588 17.1105 1.33588 16.0421V9.56363H16.6971V16.0421C16.6971 17.1105 15.7954 18.0122 14.7269 18.0122H14.7268Z" fill="#17B85A"/>
<path d="M6.67869 5.65664C6.67869 6.57885 5.9312 7.32633 5.00899 7.32633C4.08678 7.32633 3.33929 6.57885 3.33929 5.65664C3.33929 4.73466 4.08678 3.98694 5.00899 3.98694C5.9312 3.98694 6.67869 4.73466 6.67869 5.65664Z" fill="#17B85A"/>
<path d="M8.68235 5.32269H13.8155C14.1829 5.32269 14.4834 5.0222 14.4834 4.65487C14.4834 4.28752 14.1829 3.98705 13.8155 3.98705L8.68235 3.98682C8.315 3.98682 8.01453 4.28731 8.01453 4.65464C8.01453 5.02221 8.31502 5.32269 8.68235 5.32269Z" fill="#17B85A"/>
<path d="M8.68235 7.32624H13.8155C14.1829 7.32624 14.4834 7.02575 14.4834 6.65842C14.4834 6.29107 14.1829 5.9906 13.8155 5.9906H8.68235C8.315 5.9906 8.01453 6.29109 8.01453 6.65842C8.01453 7.02577 8.31502 7.32624 8.68235 7.32624Z" fill="#17B85A"/>
</svg>
