<svg width="21" height="20" viewBox="0 0 21 20" fill="none" xmlns="http://www.w3.org/2000/svg">
<path d="M19.774 17.8984L15.0544 13.1828C16.2367 11.7404 16.8851 9.93542 16.8851 8.07128C16.8851 3.61982 13.2631 0 8.81379 0C7.72605 0 6.66986 0.212815 5.67475 0.634496C4.71312 1.04238 3.85003 1.6237 3.10913 2.36463C2.36823 3.10557 1.78494 3.96865 1.37705 4.93025C0.95536 5.92536 0.74057 6.98158 0.74057 8.0693C0.74057 12.5208 4.36256 16.1406 8.81185 16.1406C10.6779 16.1406 12.481 15.4923 13.9234 14.3099L18.639 19.0255C18.7907 19.1772 18.9917 19.26 19.2045 19.26C19.4193 19.26 19.6203 19.1772 19.77 19.0255C20.0853 18.7161 20.0853 18.2097 19.774 17.8984L19.774 17.8984ZM15.2872 8.06948C15.2872 11.6401 12.3827 14.5427 8.81397 14.5427C5.24337 14.5427 2.34074 11.6382 2.34074 8.06948C2.34074 4.50078 5.24528 1.59624 8.81397 1.59624C12.3827 1.59624 15.2872 4.50078 15.2872 8.06948Z" fill="#17B85A"/>
</svg>
