<svg width="18" height="16" viewBox="0 0 18 16" fill="none" xmlns="http://www.w3.org/2000/svg">
<path d="M16 2.37037H14.2222V0.592592C14.2222 0.265078 13.9571 0 13.6296 0C13.3021 0 13.037 0.265078 13.037 0.592592V2.37037H4.74074V0.592592C4.74074 0.265078 4.47566 0 4.14815 0C3.82063 0 3.55555 0.265078 3.55555 0.592592V2.37037H1.77778C0.797494 2.37037 0 3.16786 0 4.14815V14.2222C0 15.2025 0.797494 16 1.77778 16H16C16.9803 16 17.7778 15.2025 17.7778 14.2222V4.14815C17.7778 3.16786 16.9803 2.37037 16 2.37037ZM1.77778 3.55555H3.55555V4.14815C3.55555 4.47566 3.82063 4.74074 4.14815 4.74074C4.47566 4.74074 4.74074 4.47566 4.74074 4.14815V3.55555H13.037V4.14815C13.037 4.47566 13.3021 4.74074 13.6296 4.74074C13.9571 4.74074 14.2222 4.47566 14.2222 4.14815V3.55555H16C16.327 3.55555 16.5926 3.82116 16.5926 4.14815V5.33333H1.18518V4.14815C1.18518 3.82116 1.45079 3.55555 1.77778 3.55555ZM16 14.8148H1.77778C1.45079 14.8148 1.18518 14.5492 1.18518 14.2222V6.51852H16.5926V14.2222C16.5926 14.5492 16.327 14.8148 16 14.8148Z" fill="white"/>
<path d="M11.4055 7.3136L7.67458 11.5776L6.3447 10.2477C6.11322 10.0162 5.73822 10.0162 5.50674 10.2477C5.27526 10.4792 5.27526 10.8542 5.50674 11.0856L7.28452 12.8634C7.39576 12.9747 7.54669 13.0371 7.70357 13.0371C7.70991 13.0371 7.71693 13.0371 7.72327 13.0366C7.88703 13.0314 8.04153 12.9584 8.14974 12.8346L12.2979 8.09384C12.5132 7.84795 12.4882 7.47348 12.2418 7.25761C11.9964 7.04174 11.6214 7.06661 11.4056 7.31369L11.4055 7.3136Z" fill="white"/>
</svg>
