<svg width="15" height="21" viewBox="0 0 15 21" fill="none" xmlns="http://www.w3.org/2000/svg">
<path d="M14.5706 18.3206H11.8511C11.6221 18.3206 11.4218 18.1201 11.4218 17.8913C11.4218 17.6623 11.6223 17.462 11.8511 17.462H14.1413V0.858787L0.858706 0.858587V17.4618H9.13169C9.36072 17.4618 9.561 17.6623 9.561 17.8911C9.561 18.1202 9.36052 18.3204 9.13169 18.3204L0.429312 18.3206C0.200277 18.3206 0 18.1201 0 17.8913V0.429312C0 0.200276 0.200481 0 0.429312 0H14.5707C14.7997 0 15 0.200481 15 0.429312V17.8913C15 18.1202 14.7997 18.3206 14.5707 18.3206H14.5706Z" fill="white"/>
<path d="M11.5934 3.86436H2.71929C2.49025 3.86436 2.28998 3.66388 2.28998 3.43505C2.28998 3.20601 2.49046 3.00574 2.71929 3.00574H11.5934C11.8225 3.00574 12.0227 3.20622 12.0227 3.43505C12.0229 3.66408 11.8225 3.86436 11.5934 3.86436Z" fill="white"/>
<path d="M11.5934 6.52659H2.71929C2.49025 6.52659 2.28998 6.32611 2.28998 6.09728C2.28998 5.86825 2.49046 5.66797 2.71929 5.66797H11.5934C11.8225 5.66797 12.0227 5.86845 12.0227 6.09728C12.0229 6.32612 11.8225 6.52659 11.5934 6.52659Z" fill="white"/>
<path d="M11.5648 9.18882H2.71929C2.49025 9.18882 2.28998 8.98834 2.28998 8.75951C2.28998 8.53048 2.49046 8.3302 2.71929 8.3302H11.5648C11.7938 8.3302 11.9941 8.53068 11.9941 8.75951C11.9943 8.98855 11.7938 9.18882 11.5648 9.18882Z" fill="white"/>
<path d="M10.4484 16.46C8.95981 16.46 7.75751 15.2577 7.75751 13.769C7.75751 12.2804 8.95981 11.0781 10.4484 11.0781C11.937 11.0781 13.1393 12.2804 13.1393 13.769C13.1393 15.2575 11.937 16.46 10.4484 16.46ZM10.4484 11.9655C9.4464 11.9655 8.61635 12.7956 8.61635 13.7976C8.61635 14.7996 9.4464 15.6297 10.4484 15.6297C11.4504 15.6297 12.2805 14.7996 12.2805 13.7976C12.2805 12.7958 11.4504 11.9655 10.4484 11.9655Z" fill="white"/>
<path d="M11.5648 20.8971C11.479 20.8971 11.3644 20.8685 11.3072 20.8112L10.4484 20.1528L9.58957 20.8112C9.4464 20.9256 9.27467 20.9256 9.1315 20.8685C8.98833 20.8112 8.90247 20.6395 8.90247 20.4963L8.90267 15.7445C8.90267 15.5155 9.10315 15.3152 9.33198 15.3152C9.56101 15.3152 9.76129 15.5157 9.76129 15.7445V19.6089L10.1906 19.294C10.3338 19.1796 10.5628 19.1796 10.7058 19.294L11.1351 19.6089L11.1355 15.7445C11.1355 15.5155 11.336 15.3152 11.5648 15.3152C11.7938 15.3152 11.9941 15.5157 11.9941 15.7445L11.9943 20.4677C11.9943 20.6395 11.9084 20.7826 11.7653 20.8399C11.708 20.897 11.6221 20.897 11.5648 20.897L11.5648 20.8971Z" fill="white"/>
<path d="M5.95407 15.8015H3.14875C2.91971 15.8015 2.71944 15.601 2.71944 15.3722L2.71924 12.1661C2.71924 11.9371 2.91972 11.7368 3.14855 11.7368H5.95387C6.18291 11.7368 6.38318 11.9373 6.38318 12.1661V15.3722C6.38338 15.6013 6.21165 15.8015 5.95407 15.8015H5.95407ZM3.57809 14.9429H5.52457V12.5954H3.57809V14.9429Z" fill="white"/>
</svg>
