<svg width="17" height="20" viewBox="0 0 17 20" fill="none" xmlns="http://www.w3.org/2000/svg">
<path d="M14.9894 15.6843V15.2001C14.9894 13.8527 13.8946 12.7791 12.5684 12.7791L8.79996 12.779V10.6947H13.0105C14.7579 10.6947 16.1684 9.28421 16.1684 7.53684C16.1684 6.04203 15.1368 4.77899 13.7052 4.44211C13.4315 1.91583 11.3474 0 8.75786 0C6.56846 0 4.61049 1.47365 3.99996 3.55793C2.06312 3.60008 0.505188 5.17902 0.505188 7.13684C0.505188 9.11583 2.10515 10.7158 4.0841 10.7158H7.87357V12.8H4.1262C2.77884 12.8 1.70523 13.8948 1.70523 15.221V15.7052C0.73673 15.9157 0 16.7788 0 17.8314C0 19.0315 0.968497 19.9999 2.16842 19.9999C3.3685 19.9999 4.33684 19.0314 4.33684 17.8314C4.33684 16.7998 3.59993 15.9156 2.63162 15.7052V15.221C2.63162 14.379 3.30538 13.7052 4.14741 13.7052H7.91583V15.7052C6.94733 15.9157 6.2106 16.7788 6.2106 17.8314C6.2106 19.0315 7.1791 19.9999 8.37902 19.9999C9.5791 19.9999 10.5474 19.0314 10.5474 17.8314C10.5474 16.7998 9.81053 15.9156 8.84222 15.7052V13.7052L12.5474 13.7053C13.3895 13.7053 14.0632 14.3791 14.0632 15.2211V15.7053C13.0947 15.9159 12.358 16.7789 12.358 17.8316C12.358 19.0317 13.3265 20 14.5264 20C15.7265 20 16.6949 19.0315 16.6949 17.8316C16.6949 16.7579 15.9579 15.8947 14.9896 15.6843L14.9894 15.6843ZM1.43147 7.09481C1.43147 5.64214 2.61038 4.44222 4.08406 4.44222C4.16821 4.44222 4.2525 4.44222 4.31565 4.46322C4.54723 4.48421 4.75783 4.33692 4.79982 4.10534C5.19986 2.25267 6.86309 0.905301 8.77877 0.905301C10.9893 0.905301 12.7577 2.63169 12.8209 4.84214C12.8209 5.07373 13.0103 5.26316 13.2419 5.28432C14.3998 5.38962 15.263 6.35797 15.263 7.51587C15.263 8.75793 14.2525 9.76857 13.0103 9.76857L4.08399 9.76843C2.61035 9.74743 1.4314 8.5685 1.4314 7.09486L1.43147 7.09481ZM3.38929 17.8106C3.38929 18.5053 2.82083 19.0527 2.14722 19.0527C1.47346 19.0527 0.905151 18.4842 0.905151 17.8106C0.905151 17.1159 1.47361 16.5685 2.14722 16.5685C2.82098 16.5685 3.38929 17.1159 3.38929 17.8106ZM9.57876 17.8106C9.57876 18.5053 9.0103 19.0527 8.33669 19.0527C7.66293 19.0527 7.09462 18.4842 7.09462 17.8106C7.09462 17.1159 7.66308 16.5685 8.33669 16.5685C9.01045 16.5685 9.57876 17.1159 9.57876 17.8106ZM14.5261 19.0527C13.8314 19.0527 13.2841 18.4842 13.2841 17.8106C13.2841 17.1159 13.8525 16.5685 14.5261 16.5685C15.1999 16.5685 15.7682 17.137 15.7682 17.8106C15.7682 18.5053 15.2209 19.0527 14.5261 19.0527Z" fill="white"/>
</svg>
