<svg width="21" height="14" viewBox="0 0 21 14" fill="none" xmlns="http://www.w3.org/2000/svg">
<path d="M10.5953 6.96248C12.5152 6.96248 14.0765 5.40114 14.0765 3.48124C14.0765 1.56134 12.5146 0 10.5953 0C8.6759 0 7.11401 1.56134 7.11401 3.48124C7.11401 5.40114 8.67535 6.96248 10.5953 6.96248ZM10.5953 1.16025C11.8753 1.16025 12.9161 2.20114 12.9161 3.48114C12.9161 4.76114 11.8753 5.80203 10.5953 5.80203C9.31525 5.80203 8.27436 4.76114 8.27436 3.48114C8.27436 2.20114 9.31525 1.16025 10.5953 1.16025Z" fill="white"/>
<path d="M16.6873 8.12274C18.1268 8.12274 19.2983 6.9513 19.2983 5.51181C19.2983 4.07232 18.1268 2.90088 16.6873 2.90088C15.2479 2.90088 14.0764 4.07232 14.0764 5.51181C14.0764 6.9513 15.2479 8.12274 16.6873 8.12274ZM16.6873 4.06142C17.4875 4.06142 18.1379 4.71242 18.1379 5.51201C18.1379 6.3114 17.4869 6.96239 16.6873 6.96239C15.8878 6.96239 15.2368 6.3114 15.2368 5.51181C15.2368 4.71242 15.8872 4.06142 16.6873 4.06142Z" fill="white"/>
<path d="M16.6874 9.28356C15.9736 9.28356 15.2717 9.47161 14.6567 9.82733C14.6091 9.85453 14.5749 9.89455 14.5384 9.93185C13.5797 8.82631 12.1693 8.12305 10.5952 8.12305C9.02456 8.12305 7.61749 8.82337 6.65901 9.92409C6.62424 9.8899 6.59354 9.85221 6.54944 9.82715C5.93441 9.47146 5.23234 9.28338 4.51879 9.28338C2.27911 9.28338 0.457275 11.1052 0.457275 13.3449C0.457275 13.6652 0.717205 13.9252 1.03755 13.9252C1.35789 13.9252 1.61782 13.6652 1.61782 13.3449C1.61782 11.7453 2.91921 10.4439 4.51879 10.4439C5.02814 10.4439 5.53014 10.578 5.96877 10.8315C5.98218 10.8397 5.99772 10.8397 6.01229 10.8461C5.60491 11.5893 5.37333 12.4404 5.37333 13.3449C5.37333 13.6652 5.63326 13.9252 5.95361 13.9252C6.27395 13.9252 6.53388 13.6652 6.53388 13.3449C6.53388 11.1052 8.35571 9.28338 10.5954 9.28338C12.8351 9.28338 14.6569 11.1052 14.6569 13.3449C14.6569 13.6652 14.9168 13.9252 15.2372 13.9252C15.5575 13.9252 15.8174 13.6652 15.8174 13.3449C15.8174 12.4422 15.587 11.592 15.1816 10.8505C15.2003 10.8424 15.2193 10.8418 15.2374 10.8313C15.676 10.578 16.1774 10.4439 16.6874 10.4439C18.2869 10.4439 19.5883 11.7453 19.5883 13.3449C19.5883 13.6652 19.8483 13.9252 20.1686 13.9252C20.489 13.9252 20.7489 13.6652 20.7489 13.3449C20.7489 11.1054 18.9264 9.28359 16.6874 9.28359L16.6874 9.28356Z" fill="white"/>
<path d="M4.51797 2.90088C3.07848 2.90088 1.90704 4.07232 1.90704 5.51181C1.90704 6.9513 3.07848 8.12274 4.51797 8.12274C5.95747 8.12274 7.1289 6.9513 7.1289 5.51181C7.1289 4.07232 5.95747 2.90088 4.51797 2.90088ZM4.51797 6.96239C3.71779 6.96239 3.06739 6.3114 3.06739 5.51181C3.06739 4.71222 3.71838 4.06123 4.51797 4.06123C5.31756 4.06123 5.96855 4.71222 5.96855 5.51181C5.96836 6.3114 5.31796 6.96239 4.51797 6.96239Z" fill="white"/>
</svg>
