<svg width="55" height="44" viewBox="0 0 55 44" fill="none" xmlns="http://www.w3.org/2000/svg">
<path d="M36.4015 29.4466C36.2735 29.7071 36.1227 29.9128 35.949 30.0545C35.7707 30.1962 35.5514 30.2693 35.2908 30.2693C34.788 30.2693 34.4178 29.9951 34.1755 29.4466L30.6652 21.3472L28.8826 27.8971L28.293 30.0728H19.7183C19.6725 30.6441 19.5902 31.2109 19.4668 31.7731C16.5416 36.1519 10.5905 40.2747 0.050293 43.5702C0.050293 43.5702 24.81 46.4681 38.696 31.1287C39.8021 29.9083 40.794 28.8158 41.6944 27.8286L39.9255 21.3472L36.4015 29.4466Z" fill="white"/>
<path d="M55 18.3305C55 18.3305 48.2353 7.33778 35.1949 20.1404C35.1949 20.1404 29.7603 8.91012 6.08838 0.211975C6.08838 0.211975 12.4463 4.96099 17.0765 11.5566C14.0369 9.65517 10.4443 7.71259 6.20265 5.81572C6.20265 5.81572 15.2528 13.5997 18.5711 22.6818V17.6265H20.7468V27.897H26.7527L29.3535 18.3853C29.4998 17.7911 29.8609 17.494 30.4322 17.494C30.6607 17.494 30.8756 17.558 31.0767 17.6814C31.2778 17.8048 31.4286 17.9876 31.5292 18.2299L35.3641 27.0286L39.1989 18.2299C39.4046 17.7408 39.752 17.494 40.241 17.494C40.7667 17.494 41.114 17.7911 41.2877 18.3853L43.3629 26.0139C51.8462 16.7855 49.9676 19.6971 55 18.3305Z" fill="#17B85A"/>
</svg>
