<svg width="21" height="20" viewBox="0 0 21 20" fill="none" xmlns="http://www.w3.org/2000/svg">
<path d="M3.10667 18.7425C3.29395 18.9064 3.52792 19 3.76207 19C3.926 19 4.08976 18.9531 4.23017 18.8596L8.09224 16.6124C8.8882 16.8232 9.75422 16.9168 10.5969 16.9168C15.8869 16.9168 20.1938 13.3355 20.1938 8.95838C20.1938 4.58127 15.8869 1 10.5969 1C5.30689 1 1 4.58127 1 8.95838C1 11.1118 2.07681 13.1951 3.94924 14.6931L2.8726 17.6658C2.70884 18.0402 2.80239 18.485 3.10674 18.7425L3.10667 18.7425ZM3.7387 17.9936L4.93242 14.6931C5.00263 14.5059 4.93242 14.2719 4.76849 14.1548L4.69828 14.108C2.94276 12.7737 1.93634 10.9011 1.93634 8.95842C1.93634 5.09635 5.82194 1.93632 10.5969 1.93632C15.3719 1.93632 19.2575 5.09635 19.2575 8.95842C19.2575 12.8205 15.3719 15.9805 10.5969 15.9805C9.80114 15.9805 9.00534 15.887 8.25623 15.723L8.11581 15.6997C7.99875 15.6763 7.88168 15.6997 7.76478 15.7466L3.73877 18.0873L3.71542 18.0639C3.73877 18.0402 3.73877 18.0169 3.73877 17.9935L3.7387 17.9936Z" fill="#17B85A" stroke="#17B85A" stroke-width="0.54"/>
<path d="M7.32007 8.95834C7.32007 9.47542 6.90079 9.89453 6.38371 9.89453C5.86662 9.89453 5.44751 9.47542 5.44751 8.95834C5.44751 8.44125 5.86662 8.02197 6.38371 8.02197C6.90079 8.02197 7.32007 8.44125 7.32007 8.95834Z" fill="#17B85A" stroke="#17B85A" stroke-width="0.54"/>
<path d="M11.5333 8.95834C11.5333 9.47542 11.1142 9.89453 10.5971 9.89453C10.08 9.89453 9.66089 9.47542 9.66089 8.95834C9.66089 8.44125 10.08 8.02197 10.5971 8.02197C11.1142 8.02197 11.5333 8.44125 11.5333 8.95834Z" fill="#17B85A" stroke="#17B85A" stroke-width="0.54"/>
<path d="M15.7463 8.95834C15.7463 9.47542 15.3272 9.89453 14.8101 9.89453C14.2931 9.89453 13.8738 9.47542 13.8738 8.95834C13.8738 8.44125 14.2931 8.02197 14.8101 8.02197C15.3272 8.02197 15.7463 8.44125 15.7463 8.95834Z" fill="#17B85A" stroke="#17B85A" stroke-width="0.54"/>
</svg>
