<svg width="17" height="17" viewBox="0 0 17 17" fill="none" xmlns="http://www.w3.org/2000/svg">
<path d="M15.6499 9.53881H15.0179V1.49039H15.6499C15.9161 1.49039 16.1621 1.34848 16.2952 1.11784C16.4284 0.887346 16.4284 0.603192 16.2952 0.372559C16.1621 0.142069 15.9161 0 15.6499 0H0.745194C0.478989 0 0.233066 0.142069 0.0998836 0.372559C-0.0332945 0.603204 -0.0332945 0.887362 0.0998836 1.11784C0.233062 1.34848 0.478993 1.49039 0.745194 1.49039H1.37709V9.53881H0.745194C0.478989 9.53881 0.233066 9.68088 0.0998836 9.91137C-0.0332945 10.142 -0.0332945 10.4262 0.0998836 10.6566C0.233062 10.8873 0.478993 11.0292 0.745194 11.0292H7.75043V14.4663C7.74731 14.493 7.74731 14.52 7.75043 14.5468L5.56841 16.1951C5.41449 16.3107 5.35164 16.5117 5.41247 16.6943C5.47329 16.8768 5.64421 17 5.83665 17C5.93333 16.9995 6.02737 16.9682 6.10503 16.9106L8.19163 15.3366L10.2782 16.9106C10.3559 16.9682 10.4498 16.9995 10.5465 17C10.7395 17.0012 10.9115 16.8787 10.9733 16.6957C11.0349 16.5128 10.9722 16.311 10.8178 16.1951L8.64465 14.5468C8.64777 14.52 8.64777 14.493 8.64465 14.4663V11.0292H15.6499C15.9161 11.0292 16.162 10.8873 16.2952 10.6566C16.4284 10.4262 16.4284 10.142 16.2952 9.91137C16.162 9.68088 15.9161 9.53881 15.6499 9.53881L15.6499 9.53881ZM2.27144 1.49039H14.1237V9.53881H2.27144V1.49039ZM3.98843 3.48761C3.98843 3.24074 4.18867 3.04051 4.43553 3.04051H9.42866C9.67568 3.04051 9.87591 3.24075 9.87591 3.48761C9.87591 3.73463 9.67568 3.9347 9.42866 3.9347H4.43553C4.19209 3.93486 3.99326 3.74008 3.98843 3.49663V3.48761ZM3.98843 5.50869C3.98843 5.26183 4.18867 5.0616 4.43553 5.0616H11.9594C12.2062 5.0616 12.4065 5.26183 12.4065 5.50869C12.4065 5.75571 12.2062 5.95579 11.9594 5.95579H4.43553C4.19427 5.95594 3.99654 5.76475 3.98843 5.52366V5.50869ZM12.4065 7.52978C12.4065 7.77664 12.2063 7.97687 11.9594 7.97687H4.43561C4.18874 7.97687 3.98851 7.77664 3.98851 7.52978C3.98851 7.28276 4.18875 7.08268 4.43561 7.08268H11.9594C12.0795 7.08253 12.1946 7.13087 12.2788 7.2168C12.3629 7.30257 12.4089 7.4186 12.4065 7.53868L12.4065 7.52978Z" fill="white"/>
</svg>
