<svg width="16" height="18" viewBox="0 0 16 18" fill="none" xmlns="http://www.w3.org/2000/svg">
<path d="M13.0905 0.981506H2.93872C1.30607 0.981506 0 2.31721 0 3.92023V14.3391C0 15.9718 1.33571 17.2779 2.93872 17.2779H13.0608C14.6934 17.2779 15.9995 15.9422 15.9995 14.3391V3.92023C16.0291 2.31721 14.6934 0.981506 13.0906 0.981506H13.0905ZM2.93872 2.16874H13.0608C14.0404 2.16874 14.8121 2.97025 14.8121 3.92001V7.42256L1.18734 7.42277V3.92022C1.18734 2.97024 1.98885 2.16874 2.93861 2.16874L2.93872 2.16874ZM13.0905 16.12H2.93872C1.95917 16.12 1.18745 15.3185 1.18745 14.3687V8.61012H14.8419V14.3687C14.8419 15.3185 14.0404 16.12 13.0906 16.12H13.0905Z" fill="white"/>
<path d="M5.93673 5.13719C5.93673 5.95693 5.2723 6.62137 4.45256 6.62137C3.63282 6.62137 2.96838 5.95693 2.96838 5.13719C2.96838 4.31766 3.63282 3.65302 4.45256 3.65302C5.2723 3.65302 5.93673 4.31766 5.93673 5.13719Z" fill="white"/>
<path d="M7.71776 4.84033H12.2806C12.6071 4.84033 12.8742 4.57323 12.8742 4.24672C12.8742 3.92019 12.6071 3.6531 12.2806 3.6531L7.71776 3.65289C7.39123 3.65289 7.12415 3.92 7.12415 4.24651C7.12415 4.57325 7.39125 4.84033 7.71776 4.84033Z" fill="white"/>
<path d="M7.71776 6.62132H12.2806C12.6071 6.62132 12.8742 6.35421 12.8742 6.0277C12.8742 5.70117 12.6071 5.43408 12.2806 5.43408H7.71776C7.39123 5.43408 7.12415 5.70119 7.12415 6.0277C7.12415 6.35423 7.39125 6.62132 7.71776 6.62132Z" fill="white"/>
</svg>
