<svg width="22" height="20" viewBox="0 0 22 20" fill="none" xmlns="http://www.w3.org/2000/svg">
<path d="M9.2195 2.78975C9.12096 5.38983 8.78439 6.93069 7.17174 9.252C6.97023 8.93093 6.61738 8.71344 6.21515 8.71344H2.13373C1.51358 8.71344 1 9.22702 1 9.84717V18.01C1 18.6302 1.51358 19.1437 2.13373 19.1437H6.21515C6.6063 19.1437 6.95329 18.9399 7.15749 18.6335C7.39331 18.8234 7.61158 18.9941 7.83776 19.1295C8.21167 19.3531 8.63429 19.4877 9.21237 19.5475C10.3686 19.6672 12.2661 19.5788 16.6452 19.5972C16.748 19.595 16.8498 19.557 16.9286 19.4909C17.8099 18.772 18.1927 18.0834 18.3669 17.3085C18.4527 17.2821 18.5303 17.2296 18.5866 17.1597C19.2457 16.336 19.4842 15.3856 19.3307 14.5663C19.3938 14.537 19.4501 14.493 19.4936 14.4388C20.2634 13.5357 20.4188 12.3792 20.1455 11.5053C20.6157 10.949 20.8101 10.2966 20.7407 9.6913C20.63 8.9253 20.0735 8.15534 19.3661 8.03326H13.5274C13.8765 5.73669 13.6451 3.62589 12.8685 2.25853C12.4492 1.52023 11.8377 1.10694 11.2316 1.01851C10.1683 0.877901 9.31024 1.54505 9.2193 2.78996L9.2195 2.78975ZM10.913 1.91115C11.352 1.86528 11.8416 2.20644 12.0821 2.70484C12.7453 3.87274 13.0205 6.05715 12.571 8.40183C12.5212 8.66343 12.7512 8.94083 13.0173 8.94039H19.2387C19.5792 9.115 19.7979 9.41566 19.841 9.79068C19.8826 10.1538 19.735 10.5809 19.3661 10.981H16.1846C15.945 10.981 15.7241 11.1949 15.7241 11.4345C15.7241 11.6741 15.945 11.8914 16.1846 11.8879H19.3095C19.4457 12.3888 19.341 13.0555 18.8915 13.7019H16.1846C15.945 13.7019 15.7241 13.9158 15.7241 14.1554C15.7241 14.395 15.945 14.6123 16.1846 14.6088H18.4024C18.5386 15.1097 18.4339 15.7764 17.9844 16.4228H16.1846C15.945 16.4228 15.7241 16.6367 15.7241 16.8763C15.7241 17.1159 15.945 17.3332 16.1846 17.3297H17.4389C17.2991 17.8148 17.0433 18.187 16.454 18.6903C12.2394 18.6757 10.2849 18.7422 9.30465 18.6406C8.80467 18.5889 8.56995 18.5154 8.30551 18.3572C8.06731 18.2147 7.77565 17.9632 7.34892 17.6203V10.5487C9.456 7.86871 10.0222 5.61534 10.1266 2.82515C10.2593 2.21731 10.5717 1.94671 10.9132 1.91112L10.913 1.91115ZM2.13385 9.6205H6.21528C6.34877 9.6205 6.44209 9.71382 6.44209 9.84732V18.0102C6.44209 18.1437 6.34877 18.237 6.21528 18.237H2.13385C2.00036 18.237 1.90704 18.1437 1.90704 18.0102V9.84732C1.90704 9.71382 2.00036 9.6205 2.13385 9.6205ZM4.17448 15.2819C3.79884 15.2819 3.4942 15.5863 3.4942 15.9621C3.4942 16.3378 3.79867 16.6424 4.17448 16.6424C4.55012 16.6424 4.85476 16.3378 4.85476 15.9621C4.85476 15.5865 4.55013 15.2819 4.17448 15.2819Z" fill="#17B85A" stroke="#17B85A" stroke-width="0.5"/>
</svg>
