<svg width="18" height="18" viewBox="0 0 18 18" fill="none" xmlns="http://www.w3.org/2000/svg">
<path d="M10.6679 2.76403L11.0453 1.62523C10.1934 1.34264 9.3036 1.19988 8.4 1.19988C3.768 1.19988 0 4.9679 0 9.59994C0 14.232 3.768 18 8.4 18C13.032 18 16.8 14.232 16.8 9.59994C16.8 8.69698 16.6572 7.80716 16.3752 6.95508L15.2364 7.3325C15.4776 8.06214 15.6 8.82528 15.6 9.59994C15.6 13.5703 12.3701 16.8 8.39996 16.8C4.42978 16.8 1.19997 13.5701 1.19997 9.59994C1.19997 5.62972 4.42978 2.39988 8.39996 2.39988C9.17513 2.39988 9.93774 2.52229 10.6679 2.76403H10.6679ZM12.9215 7.98716C13.1063 8.5032 13.2 9.04615 13.2 9.59994C13.2 12.2465 11.0465 14.4 8.39996 14.4C5.75342 14.4 3.59997 12.2465 3.59997 9.59994C3.59997 6.95337 5.75342 4.7999 8.39996 4.7999C8.95375 4.7999 9.49669 4.89352 10.0127 5.07834L9.60946 6.20817C9.2232 6.07009 8.81582 5.99991 8.39996 5.99991C6.41462 5.99991 4.79997 7.61457 4.79997 9.59993C4.79997 11.5853 6.41462 13.2 8.39996 13.2C10.3853 13.2 12 11.5853 12 9.59993C12 9.18408 11.9298 8.77666 11.7917 8.38974L12.9215 7.98716ZM17.9543 2.77021C17.8619 2.54587 17.6423 2.40002 17.3999 2.40002H15.5999V0.600007C15.5999 0.357595 15.454 0.137934 15.2297 0.0455336C15.1552 0.014462 15.0773 -3.37342e-07 14.9999 -3.37342e-07C14.8438 -3.37342e-07 14.6902 0.0612051 14.5757 0.175847L11.5757 3.17587C11.4628 3.28797 11.3999 3.44038 11.3999 3.60002V5.75161L8.39986 8.75163V7.80005C8.39986 7.46831 8.13106 7.20005 7.79986 7.20005C7.46865 7.20005 7.19986 7.46831 7.19986 7.80005V10.2001C7.19986 10.278 7.21606 10.3561 7.24607 10.4292C7.3066 10.5756 7.42366 10.6927 7.57071 10.7539C7.64383 10.7839 7.72192 10.8001 7.79986 10.8001H10.1999C10.5316 10.8001 10.7999 10.5313 10.7999 10.2001C10.7999 9.86887 10.5316 9.60007 10.1999 9.60007H9.2483L12.2483 6.60005H14.3999C14.5595 6.60005 14.7119 6.5371 14.824 6.4242L17.824 3.42418C17.9957 3.25261 18.0473 2.99468 17.9543 2.77021H17.9543ZM14.3999 2.04845V2.75173L12.5999 4.55174V3.84847L14.3999 2.04845ZM15.9515 3.60003L14.1515 5.40004H13.4482L15.2482 3.60003H15.9515Z" fill="white"/>
</svg>
