<svg width="50" height="50" viewBox="0 0 50 50" fill="none" xmlns="http://www.w3.org/2000/svg">
<g filter="url(#filter0_d_1_238)">
<circle cx="25" cy="18" r="15" fill="#FFF1E7"/>
</g>
<path d="M43 18C43 27.9411 34.9411 36 25 36C15.0589 36 7 27.9411 7 18C7 8.05887 15.0589 0 25 0C34.9411 0 43 8.05887 43 18ZM10.4329 18C10.4329 26.0452 16.9548 32.5671 25 32.5671C33.0452 32.5671 39.5671 26.0452 39.5671 18C39.5671 9.9548 33.0452 3.43288 25 3.43288C16.9548 3.43288 10.4329 9.9548 10.4329 18Z" fill="white"/>
<path d="M43 18C43 27.9411 34.9411 36 25 36C15.0589 36 7 27.9411 7 18C7 8.05887 15.0589 0 25 0C34.9411 0 43 8.05887 43 18ZM10.4329 18C10.4329 26.0452 16.9548 32.5671 25 32.5671C33.0452 32.5671 39.5671 26.0452 39.5671 18C39.5671 9.9548 33.0452 3.43288 25 3.43288C16.9548 3.43288 10.4329 9.9548 10.4329 18Z" fill="#F78026"/>
<path d="M19.167 10.7917V9.66674C19.167 9.29182 19.4587 9 19.8338 9C20.2087 9 20.5005 9.29166 20.5005 9.66674V10.7709H24.0631V9.66674C24.0631 9.29182 24.3548 9 24.7299 9C25.1048 9 25.3966 9.29166 25.3966 9.66674V10.7709H28.9592V9.66674C28.9592 9.29182 29.2509 9 29.6259 9C30.0009 9 30.2927 9.29166 30.2927 9.66674V10.7917C31.5428 10.8959 32.5219 11.9583 32.5219 13.2292V23.5417C32.5219 24.8958 31.4178 26 30.0637 26H19.3761C18.022 26 16.9178 24.8958 16.9178 23.5417V13.2292C16.938 11.9376 17.9171 10.8959 19.167 10.7917ZM19.3962 12.1042C18.7712 12.1042 18.292 12.6043 18.292 13.2084V23.5209C18.292 24.146 18.7921 24.6251 19.3962 24.6251H30.0838C30.7088 24.6251 31.1879 24.1251 31.1879 23.5209V13.2084C31.1879 12.5834 30.6879 12.1042 30.0838 12.1042H19.3962Z" fill="#3B3B3B"/>
<path d="M23.4343 22C23.2877 22 23.1411 21.9443 23.0155 21.8442L21.2039 20.2529C20.9631 20.0414 20.9317 19.6742 21.1306 19.4183C21.3295 19.1623 21.6751 19.1289 21.9159 19.3403L23.3504 20.5978L26.9944 15.2452C27.1724 14.9781 27.518 14.9225 27.7693 15.1117C28.0206 15.3008 28.0729 15.6681 27.8949 15.9352L23.9682 21.7107C23.8635 21.8665 23.7065 21.9666 23.5284 21.9889C23.497 21.9889 23.4656 22 23.4342 22L23.4343 22Z" fill="#3B3B3B" stroke="#3B3B3B" stroke-width="0.3"/>
<defs>
<filter id="filter0_d_1_238" x="0" y="0" width="50" height="50" filterUnits="userSpaceOnUse" color-interpolation-filters="sRGB">
<feFlood flood-opacity="0" result="BackgroundImageFix"/>
<feColorMatrix in="SourceAlpha" type="matrix" values="0 0 0 0 0 0 0 0 0 0 0 0 0 0 0 0 0 0 127 0" result="hardAlpha"/>
<feOffset dy="7"/>
<feGaussianBlur stdDeviation="5"/>
<feComposite in2="hardAlpha" operator="out"/>
<feColorMatrix type="matrix" values="0 0 0 0 0.968627 0 0 0 0 0.501961 0 0 0 0 0.14902 0 0 0 0.2 0"/>
<feBlend mode="normal" in2="BackgroundImageFix" result="effect1_dropShadow_1_238"/>
<feBlend mode="normal" in="SourceGraphic" in2="effect1_dropShadow_1_238" result="shape"/>
</filter>
</defs>
</svg>
